<svg id="Capa_1" enable-background="new 0 0 512 512" height="512" viewBox="0 0 512 512" width="512" xmlns="http://www.w3.org/2000/svg"><g><circle cx="256" cy="256" r="256"/><g fill="#fff"><path d="m448.664 221.506c-1.045-.825-11.003-8.362-32.018-8.362-5.556 0-11.058.495-16.559 1.43-4.071-27.837-27.067-41.425-28.112-42.03l-5.611-3.246-3.686 5.336c-4.621 7.207-8.032 15.129-10.012 23.436-3.741 15.899-1.485 30.807 6.602 43.571-9.737 5.446-25.416 6.767-28.552 6.877h-258.949c-6.767 0-12.268 5.501-12.268 12.213-.275 22.665 3.521 45.221 11.333 66.511 8.912 23.381 22.17 40.6 39.445 51.162 19.365 11.828 50.777 18.595 86.426 18.595 16.119.055 32.183-1.43 47.972-4.346 22.005-4.016 43.186-11.718 62.605-22.776 16.009-9.297 30.477-21.125 42.746-34.988 20.52-23.216 32.733-49.072 41.81-72.068h3.631c22.445 0 36.254-8.967 43.901-16.504 5.061-4.786 9.022-10.673 11.553-17.164l1.595-4.731z"/><path d="m95.753 240.926h34.713c1.65 0 3.026-1.375 3.026-3.026v-30.917c0-1.65-1.32-3.026-3.026-3.026h-34.713c-1.65 0-3.026 1.375-3.026 3.026v30.917c0 1.65 1.376 3.026 3.026 3.026z"/><path d="m143.56 240.926h34.713c1.65 0 3.026-1.375 3.026-3.026v-30.917c0-1.65-1.32-3.026-3.026-3.026h-34.713c-1.706 0-3.026 1.375-3.026 3.026v30.917c0 1.65 1.375 3.026 3.026 3.026"/><path d="m192.136 240.926h34.713c1.65 0 3.026-1.375 3.026-3.026v-30.917c0-1.65-1.32-3.026-3.026-3.026h-34.713c-1.65 0-3.026 1.375-3.026 3.026v30.917c.001 1.65 1.321 3.026 3.026 3.026z"/><path d="m240.108 240.926h34.713c1.65 0 3.026-1.375 3.026-3.026v-30.917c0-1.705-1.375-3.026-3.026-3.026h-34.713c-1.65 0-3.026 1.375-3.026 3.026v30.917c0 1.65 1.321 3.026 3.026 3.026z"/><path d="m143.56 196.475h34.713c1.65 0 3.026-1.375 3.026-3.026v-30.918c0-1.65-1.375-3.026-3.026-3.026h-34.713c-1.65 0-3.026 1.375-3.026 3.026v30.918c0 1.651 1.375 3.026 3.026 3.026"/><path d="m192.136 196.475h34.713c1.65 0 3.026-1.375 3.026-3.026v-30.918c0-1.65-1.375-3.026-3.026-3.026h-34.713c-1.65 0-3.026 1.375-3.026 3.026v30.918c.001 1.651 1.321 3.026 3.026 3.026"/><path d="m240.108 196.475h34.713c1.705 0 3.026-1.375 3.026-3.026v-30.918c0-1.65-1.375-3.026-3.026-3.026h-34.713c-1.65 0-3.026 1.375-3.026 3.026v30.918c0 1.651 1.321 3.026 3.026 3.026"/><path d="m240.108 151.969h34.713c1.65 0 3.026-1.375 3.026-3.026v-30.918c0-1.65-1.375-3.026-3.026-3.026h-34.713c-1.65 0-3.026 1.375-3.026 3.026v30.918c0 1.706 1.321 3.026 3.026 3.026"/><path d="m288.465 240.926h34.714c1.65 0 3.026-1.375 3.026-3.026v-30.917c0-1.705-1.375-3.026-3.026-3.026h-34.714c-1.65 0-3.026 1.375-3.026 3.026v30.917c0 1.65 1.375 3.026 3.026 3.026"/></g></g></svg>