<svg id="Capa_1" enable-background="new 0 0 512 512" height="512" viewBox="0 0 512 512" width="512" xmlns="http://www.w3.org/2000/svg"><g><circle cx="256" cy="256" r="256"/><g id="Group"><g id="Rectangle_55_x5F_2"><path d="m351.74 199.05c18.54-12.18 30.8-33.16 30.8-56.96 0-37.56-30.55-68.11-68.11-68.11h-116.86c-37.56 0-68.11 30.55-68.11 68.11 0 23.8 12.26 44.78 30.8 56.96-18.54 12.18-30.8 33.16-30.8 56.95 0 23.8 12.26 44.78 30.8 56.96-18.54 12.17-30.8 33.15-30.8 56.95 0 37.56 30.71 68.11 68.47 68.11 38.17 0 69.23-30.89 69.23-68.85v-62.8c12.1 11.01 28.18 17.74 45.8 17.74h1.47c37.56 0 68.11-30.55 68.11-68.11 0-23.79-12.26-44.77-30.8-56.95zm-84.58-102.76h47.27c25.26 0 45.8 20.55 45.8 45.8s-20.54 45.8-45.8 45.8h-47.27zm-115.39 45.8c0-25.25 20.54-45.8 45.8-45.8h47.27v91.6h-47.27c-25.26 0-45.8-20.55-45.8-45.8zm0 113.91c0-25.25 20.54-45.8 45.8-45.8h47.27v91.6h-47.27c-25.26 0-45.8-20.54-45.8-45.8zm93.07 113.17c0 25.66-21.04 46.54-46.91 46.54-25.45 0-46.16-20.55-46.16-45.8s20.54-45.8 45.8-45.8h47.27zm69.59-67.37h-1.47c-25.26 0-45.8-20.54-45.8-45.8 0-25.25 20.54-45.8 45.8-45.8h1.47c25.26 0 45.8 20.55 45.8 45.8 0 25.26-20.54 45.8-45.8 45.8z" fill="#fff"/></g></g></g></svg>