<svg width="42" height="24" viewBox="0 0 42 24" fill="none" xmlns="http://www.w3.org/2000/svg">
<mask id="mask0_47_15469" style="mask-type:luminance" maskUnits="userSpaceOnUse" x="0" y="0" width="42" height="24">
<path d="M0.729126 0.972658H41.6666V24H0.729126V0.972658Z" fill="white"/>
</mask>
<g mask="url(#mask0_47_15469)">
<path d="M12.2239 13.6724C13.0813 13.6724 13.7215 13.5143 14.1265 13.2026C14.5272 12.894 14.804 12.3595 14.949 11.6139C15.0843 10.917 15.0328 10.4303 14.796 10.1677C14.5538 9.89949 14.0303 9.76345 13.24 9.76345H11.8696L11.1099 13.6724H12.2239ZM7.74184 18.4875C7.67823 18.4875 7.61782 18.4591 7.57738 18.4099C7.53687 18.3608 7.52045 18.2962 7.53261 18.2337L9.54594 7.87486C9.56541 7.77472 9.65318 7.70236 9.75524 7.70236H14.0945C15.4582 7.70236 16.4733 8.07265 17.1113 8.80306C17.7527 9.5373 17.9508 10.5637 17.7 11.8535C17.5979 12.379 17.4224 12.8671 17.1782 13.3041C16.9338 13.7415 16.6108 14.1463 16.218 14.5073C15.7478 14.9474 15.2156 15.2665 14.6376 15.4543C14.0688 15.6395 13.3383 15.7335 12.4665 15.7335H10.7095L10.2077 18.315C10.1882 18.4152 10.1005 18.4875 9.99845 18.4875H7.74184Z" fill="black"/>
<path d="M12.0454 9.97708H13.24C14.1939 9.97708 14.5252 10.1864 14.6378 10.3111C14.8246 10.5182 14.8598 10.9549 14.7398 11.5739C14.6049 12.2668 14.3548 12.7581 13.9965 13.034C13.6296 13.3165 13.0332 13.4596 12.2239 13.4596H11.3686L12.0454 9.97708ZM14.0945 7.48956H9.75521C9.55109 7.48956 9.37561 7.63426 9.33666 7.83461L7.32333 18.1934C7.29903 18.3184 7.33186 18.4477 7.41281 18.546C7.49384 18.6443 7.61452 18.7012 7.74188 18.7012H9.99842C10.2026 18.7012 10.3781 18.5565 10.417 18.3561L10.8853 15.9471H12.4665C13.3608 15.9471 14.1136 15.8496 14.7038 15.6574C15.3108 15.4601 15.8693 15.1258 16.3636 14.6635C16.7724 14.2874 17.1092 13.8652 17.3643 13.4086C17.6195 12.9518 17.8029 12.4424 17.9093 11.8946C18.1733 10.5368 17.9588 9.44958 17.2719 8.66324C16.5916 7.88443 15.5225 7.48956 14.0945 7.48956ZM10.8513 13.886H12.2239C13.1337 13.886 13.8114 13.7147 14.2566 13.3719C14.702 13.0291 15.0023 12.4569 15.1584 11.655C15.3077 10.8852 15.2397 10.3419 14.9543 10.0254C14.6686 9.70892 14.0973 9.55065 13.24 9.55065H11.6939L10.8513 13.886ZM14.0945 7.91599C15.3999 7.91599 16.3522 8.25856 16.9508 8.94376C17.5493 9.62897 17.7295 10.5854 17.4907 11.8133C17.3924 12.3191 17.2262 12.7816 16.9921 13.2006C16.7578 13.6198 16.4518 14.0032 16.0737 14.3508C15.6231 14.7725 15.1226 15.0729 14.5718 15.2519C14.021 15.4314 13.3194 15.5207 12.4665 15.5207H10.5337L9.99842 18.2747H7.74188L9.75521 7.91599H14.0945Z" fill="white"/>
<path d="M22.874 15.7339C22.8103 15.7339 22.7499 15.7055 22.7095 15.6563C22.6689 15.6072 22.6525 15.5426 22.6647 15.48L23.5553 10.8967C23.64 10.4608 23.6191 10.1479 23.4965 10.0157C23.4214 9.93491 23.196 9.79937 22.5294 9.79937H20.9159L19.7962 15.5613C19.7767 15.6615 19.6889 15.7339 19.5869 15.7339H17.3481C17.2844 15.7339 17.2241 15.7055 17.1836 15.6563C17.1431 15.6072 17.1267 15.5425 17.1388 15.48L19.1521 5.12119C19.1716 5.02105 19.2594 4.9487 19.3614 4.9487H21.6002C21.6639 4.9487 21.7242 4.97713 21.7647 5.02624C21.8053 5.07543 21.8217 5.14003 21.8095 5.20257L21.3237 7.70275H23.0594C24.3817 7.70275 25.2783 7.93586 25.8006 8.41546C26.3329 8.90472 26.499 9.68701 26.2943 10.7409L25.3576 15.5613C25.3381 15.6615 25.2504 15.7339 25.1483 15.7339H22.874Z" fill="black"/>
<path d="M21.6002 4.73541H19.3614C19.1572 4.73541 18.9818 4.88011 18.9428 5.08046L16.9295 15.4393C16.9052 15.5643 16.938 15.6936 17.019 15.7919C17.1 15.8902 17.2207 15.947 17.3481 15.947H19.5869C19.791 15.947 19.9665 15.8023 20.0055 15.602L21.0917 10.0125H22.5294C23.1948 10.0125 23.3345 10.1546 23.3401 10.1608C23.3805 10.2042 23.4336 10.4053 23.3459 10.8559L22.4553 15.4393C22.431 15.5643 22.4639 15.6936 22.5449 15.7919C22.6259 15.8902 22.7466 15.947 22.8739 15.947H25.1482C25.3524 15.947 25.5279 15.8023 25.5669 15.602L26.5035 10.7815C26.7233 9.64997 26.5353 8.80115 25.9448 8.25845C25.3814 7.74097 24.4375 7.48945 23.0594 7.48945H21.5822L22.0188 5.24322C22.043 5.1182 22.0103 4.98885 21.9293 4.89063C21.8482 4.79233 21.7275 4.73541 21.6002 4.73541ZM21.6002 5.16184L21.0649 7.91588H23.0594C24.3143 7.91588 25.1799 8.13492 25.6563 8.57244C26.1327 9.01025 26.2754 9.71962 26.085 10.7002L25.1482 15.5206H22.8739L23.7645 10.9373C23.8659 10.4159 23.8287 10.0603 23.6527 9.87065C23.4766 9.68103 23.1022 9.58607 22.5294 9.58607H20.7401L19.5869 15.5206H17.3481L19.3614 5.16184H21.6002Z" fill="white"/>
<path d="M29.8366 13.6724C30.6941 13.6724 31.3343 13.5143 31.7393 13.2026C32.14 12.8941 32.4168 12.3596 32.5619 11.6139C32.6972 10.917 32.6456 10.4303 32.4087 10.1677C32.1666 9.89949 31.6431 9.76345 30.8528 9.76345H29.4824L28.7227 13.6724H29.8366ZM25.3547 18.4875C25.2911 18.4875 25.2307 18.4591 25.1902 18.4099C25.1497 18.3608 25.1332 18.2962 25.1454 18.2337L27.1587 7.87486C27.1783 7.77472 27.266 7.70236 27.3681 7.70236H31.7073C33.0711 7.70236 34.086 8.07265 34.7241 8.80306C35.3656 9.53723 35.5636 10.5636 35.3128 11.8535C35.2106 12.379 35.0351 12.8671 34.791 13.3041C34.5466 13.7415 34.2236 14.1463 33.8308 14.5073C33.3605 14.9474 32.8284 15.2665 32.2504 15.4543C31.6816 15.6395 30.9511 15.7335 30.0793 15.7335H28.3222L27.8206 18.315C27.8011 18.4152 27.7134 18.4875 27.6112 18.4875H25.3547Z" fill="black"/>
<path d="M29.6582 9.97708H30.8527C31.8066 9.97708 32.1379 10.1864 32.2505 10.3111C32.4374 10.5182 32.4726 10.9549 32.3525 11.5738C32.2176 12.2668 31.9675 12.7581 31.6092 13.034C31.2423 13.3165 30.6459 13.4596 29.8366 13.4596H28.9814L29.6582 9.97708ZM31.7072 7.48956H27.368C27.1639 7.48956 26.9884 7.63426 26.9495 7.83461L24.9361 18.1934C24.9118 18.3184 24.9447 18.4477 25.0256 18.546C25.1066 18.6443 25.2273 18.7012 25.3547 18.7012H27.6112C27.8153 18.7012 27.9909 18.5565 28.0298 18.3561L28.498 15.9471H30.0793C30.9735 15.9471 31.7263 15.8496 32.3165 15.6574C32.9236 15.4601 33.4822 15.1257 33.9765 14.6634C34.3853 14.2873 34.7219 13.8652 34.977 13.4086C35.2323 12.9518 35.4156 12.4424 35.522 11.8946C35.7861 10.5368 35.5716 9.44951 34.8846 8.66317C34.2043 7.88443 33.1353 7.48956 31.7072 7.48956ZM28.4641 13.886H29.8366C30.7464 13.886 31.4241 13.7147 31.8693 13.3719C32.3148 13.0291 32.615 12.4569 32.7711 11.655C32.9205 10.8852 32.8525 10.3419 32.5671 10.0254C32.2814 9.70892 31.71 9.55065 30.8527 9.55065H29.3066L28.4641 13.886ZM31.7072 7.91599C33.0126 7.91599 33.9649 8.25856 34.5635 8.94376C35.162 9.62897 35.3422 10.5854 35.1034 11.8133C35.0051 12.3191 34.8389 12.7816 34.6048 13.2006C34.3705 13.6198 34.0645 14.0032 33.6864 14.3508C33.2358 14.7725 32.7353 15.0729 32.1845 15.2519C31.6337 15.4314 30.9321 15.5207 30.0793 15.5207H28.1464L27.6112 18.2747H25.3547L27.368 7.91599H31.7072Z" fill="white"/>
</g>
</svg>
